<svg xmlns="http://www.w3.org/2000/svg" shape-rendering="geometricPrecision" text-rendering="geometricPrecision" image-rendering="optimizeQuality" fill-rule="evenodd" clip-rule="evenodd" viewBox="0 0 512 86.832"><defs><linearGradient id="prefix__a" gradientUnits="userSpaceOnUse" x1="45.578" y1="3.495" x2="45.579" y2="64.504"><stop offset="0" stop-color="#FFD433"/><stop offset=".471" stop-color="#FABE2B"/><stop offset="1" stop-color="#F4A722"/></linearGradient><linearGradient id="prefix__b" gradientUnits="userSpaceOnUse" x1="151.001" y1="3.495" x2="151.002" y2="64.504"><stop offset="0" stop-color="#FFD433"/><stop offset=".471" stop-color="#FABE2B"/><stop offset="1" stop-color="#F4A722"/></linearGradient><linearGradient id="prefix__c" gradientUnits="userSpaceOnUse" x1="256.423" y1="3.495" x2="256.425" y2="64.504"><stop offset="0" stop-color="#FFD433"/><stop offset=".471" stop-color="#FABE2B"/><stop offset="1" stop-color="#F4A722"/></linearGradient><linearGradient id="prefix__d" gradientUnits="userSpaceOnUse" x1="361.846" y1="3.495" x2="361.848" y2="64.504"><stop offset="0" stop-color="#FFD433"/><stop offset=".471" stop-color="#FABE2B"/><stop offset="1" stop-color="#F4A722"/></linearGradient><linearGradient id="prefix__e" gradientUnits="userSpaceOnUse" x1="467.269" y1="3.495" x2="467.27" y2="64.504"><stop offset="0" stop-color="#FFD433"/><stop offset=".471" stop-color="#FABE2B"/><stop offset="1" stop-color="#F4A722"/></linearGradient></defs><path fill="#F0B100" fill-rule="nonzero" d="M69.462 55.479l4.885 28.637a2.356 2.356 0 01-.246 1.484 2.322 2.322 0 01-3.14.955L45.278 72.818l-25.58 13.681a2.324 2.324 0 01-3.489-2.365l4.719-28.643L.737 34.906a2.31 2.31 0 01-.714-1.369 2.328 2.328 0 011.975-2.631l28.203-4.038L43.197 1.29a2.325 2.325 0 014.157-.011L60.236 26.87l28.078 4.036a2.324 2.324 0 011.337 3.923l-20.189 20.65z"/><path fill="url(#prefix__a)" d="M72.053 84.507L66.97 54.706l21.016-21.497L58.706 29 45.278 2.325 31.725 29 2.326 33.209l21.087 21.497-4.91 29.801 26.775-14.321z"/><path fill="#F0B100" fill-rule="nonzero" d="M174.885 55.479l4.885 28.637a2.356 2.356 0 01-.246 1.484 2.322 2.322 0 01-3.14.955l-25.683-13.737-25.58 13.681a2.324 2.324 0 01-3.489-2.365l4.719-28.643-20.192-20.585a2.328 2.328 0 011.262-4l28.203-4.038L148.62 1.29a2.325 2.325 0 014.157-.011l12.882 25.591 28.077 4.036a2.324 2.324 0 011.338 3.923l-20.189 20.65z"/><path fill="url(#prefix__b)" d="M177.476 84.507l-5.083-29.801 21.016-21.497L164.128 29 150.701 2.325 137.149 29l-29.4 4.209 21.087 21.497-4.911 29.801 26.776-14.321z"/><path fill="#F0B100" fill-rule="nonzero" d="M280.308 55.479l4.885 28.637a2.363 2.363 0 01-.246 1.484 2.322 2.322 0 01-3.14.955l-25.683-13.737-25.58 13.681a2.325 2.325 0 01-3.49-2.365l4.72-28.643-20.192-20.585a2.328 2.328 0 011.262-4l28.203-4.038L254.043 1.29a2.325 2.325 0 014.157-.011l12.881 25.591 28.078 4.036a2.324 2.324 0 011.338 3.923l-20.189 20.65z"/><path fill="url(#prefix__c)" d="M282.899 84.507l-5.083-29.801 21.016-21.497L269.551 29 256.124 2.325 242.571 29l-29.399 4.209 21.087 21.497-4.91 29.801 26.775-14.321z"/><path fill="#F0B100" fill-rule="nonzero" d="M385.731 55.479l4.885 28.637a2.363 2.363 0 01-.247 1.484 2.321 2.321 0 01-3.14.955l-25.682-13.737-25.58 13.681a2.326 2.326 0 01-3.49-2.365l4.72-28.643-20.192-20.585a2.328 2.328 0 011.262-4l28.203-4.038L359.466 1.29a2.324 2.324 0 014.156-.011l12.883 25.591 28.077 4.036a2.324 2.324 0 011.338 3.923l-20.189 20.65z"/><path fill="url(#prefix__d)" d="M388.322 84.507l-5.083-29.801 21.016-21.497L374.974 29 361.547 2.325 347.994 29l-29.399 4.209 21.087 21.497-4.911 29.801 26.776-14.321z"/><path fill="#F0B100" fill-rule="nonzero" d="M491.153 55.479l4.885 28.637a2.356 2.356 0 01-.246 1.484 2.322 2.322 0 01-3.14.955l-25.683-13.737-25.58 13.681a2.324 2.324 0 01-3.489-2.365l4.719-28.643-20.192-20.585a2.328 2.328 0 011.262-4l28.203-4.038L464.888 1.29a2.325 2.325 0 014.157-.011l12.882 25.591 28.077 4.036a2.324 2.324 0 011.338 3.923l-20.189 20.65z"/><path fill="url(#prefix__e)" d="M493.744 84.507l-5.083-29.801 21.016-21.497L480.396 29 466.969 2.325 453.417 29l-29.4 4.209 21.087 21.497-4.911 29.801 26.776-14.321z"/></svg>